<?xml version="1.0" encoding="utf-8"?>
<!-- Generator: Adobe Illustrator 23.0.1, SVG Export Plug-In . SVG Version: 6.00 Build 0)  -->
<!DOCTYPE svg PUBLIC "-//W3C//DTD SVG 1.1//EN" "http://www.w3.org/Graphics/SVG/1.1/DTD/svg11.dtd" [
	<!ENTITY ns_extend "http://ns.adobe.com/Extensibility/1.0/">
	<!ENTITY ns_ai "http://ns.adobe.com/AdobeIllustrator/10.0/">
	<!ENTITY ns_graphs "http://ns.adobe.com/Graphs/1.0/">
	<!ENTITY ns_vars "http://ns.adobe.com/Variables/1.0/">
	<!ENTITY ns_imrep "http://ns.adobe.com/ImageReplacement/1.0/">
	<!ENTITY ns_sfw "http://ns.adobe.com/SaveForWeb/1.0/">
	<!ENTITY ns_custom "http://ns.adobe.com/GenericCustomNamespace/1.0/">
	<!ENTITY ns_adobe_xpath "http://ns.adobe.com/XPath/1.0/">
]>
<svg version="1.1" id="Livello_1" xmlns:x="&ns_extend;" xmlns:i="&ns_ai;" xmlns:graph="&ns_graphs;"
	 xmlns="http://www.w3.org/2000/svg" xmlns:xlink="http://www.w3.org/1999/xlink" x="0px" y="0px" viewBox="0 0 3374.8 2089.3"
	 style="enable-background:new 0 0 3374.8 2089.3;" xml:space="preserve">
<style type="text/css">
	.st0{fill:#FF6B00;}
	.st1{fill:#9C9B9B;}
</style>
<metadata>
	<sfw  xmlns="&ns_sfw;">
		<slices></slices>
		<sliceSourceBounds  bottomLeftOrigin="true" height="2089.3" width="3374.8" x="-685.4" y="-534.8"></sliceSourceBounds>
	</sfw>
</metadata>
<g>
	<path class="st0" d="M1027.8,479c92.3-10.5,159.6-85.1,150.3-166.5c-2.5-21.7-10.2-41.7-21.8-59.1c1.2,12.8-0.7,25.3-4.3,36.6
		c-4.1,13.7-11,25.9-18.8,37c-7.9,11-16.8,20.5-26.5,29.1c-19.3,17.2-41.2,30.2-64.9,39.7c-23.7,9.1-49.2,14.9-75.6,14.8
		c0,0-9.6,0.2-18.6-0.9c-8.7-1-18.7-3-20.2-3.3c-12.3-2.7-24.7-6.3-36.9-11.9c-6.1-2.8-20.6-9.5-34.7-22.7c-3.8-3.6-7.4-7.6-10.6-12
		C859.5,436.3,939,489.1,1027.8,479 M867.8,319.4c9.4,10.7,24.4,15.7,41.8,18.9c8.6,1.5,17.8,2.4,27.2,2.8c4.5,0.3,9.8,0.5,13.9,0.2
		l6.5-0.1l6.6-0.5c17.5-1.4,35.3-5.9,52.7-12c17.3-6.4,34.3-14.5,49.5-24.6c24.5-16.3,32.7-28.2,37.1-34.7c4.2-6.6,7.2-13.4,8.4-20
		c1.2-6.6,0.5-13.4-3-21c-3-6.4-7.9-13.2-17.5-21.6c-26.8-23.8-70.7-25.6-96.6-22.7c-60.1,6.9-110.7,42-129.5,79.6
		c-4.7,10.1-7.2,22.4-6.2,32.7C859.5,306.2,863.1,314,867.8,319.4 M999.7,1012.5c-18.6-1-37.6,1.5-56.1,7.3
		c-18.5,5.9-36.6,14.8-53.8,25.6c-8.7,5.4-17.1,11.4-25.3,17.7c0,0-66.1,49-87,61.4c-42.2,24.2-68,42.7-116.2,53.9
		c-41,9.4-73.3,10.8-73.3,10.8c-24.6,1.5-63.4,2.8-110.7-4.2c-63.7-9.4-107-26-107-26c-19.8-6.6-39.1-14.5-58.1-23
		c35.9,52.3,75.4,104.7,124.3,142.7c41.4,32.2,91.5,53.8,144,58c86.6,6.9,146.9-34.6,211-89.6c45.9-39.4,85.2-86.9,124.8-132.4
		c27.6-31.7,55.7-73.4,90.4-101.5C1004.4,1013,1002.1,1012.6,999.7,1012.5 M1517.7,872.4c17.6,15.9,36.5,29.7,56.1,40.8
		c19.8,10.9,40.4,19.1,61.8,23.4c21.4,4.5,43.4,5.2,65.6,2.5c11.1-1.5,22.2-3.6,33.4-6.6c11.1-3.1,22.2-6.9,33.1-11.3
		c40.3-16.7,78.9-42.1,114.7-71.7c35.9-29.7,69.2-63.7,100.4-99.8c31.2-36.2,60.3-74.6,87.6-114.4c20.4-29.9,39.8-60.6,58.1-92
		c-14.6-11.3-33.6-17-55.1-15.6c-51.1,3.3-95,37.1-130.7,70.9c-38.1,36.1-71.9,76.3-111.9,110.5c-39.9,34.2-81.6,66.5-126.7,93.7
		c-59.4,35.8-126.2,61.3-193.9,62.7C1510.6,865.7,1517.7,872.4,1517.7,872.4 M2570.9,651.5c44.9-29.9,95.1-53.2,144.4-74.8
		c94.3-41.3,238.3-61.8,273.2-169.3c37.1-114.3-66.8-188.6-172.2-192.2c-285.1-9.7-567.1,171.8-581.2,223.7
		c10,1.8,20.7,3.3,31.9,4.5c47.9,5,106.4,5.2,169.3,5.2h11.2c97,0,165.5,2.6,209.4,9c21.9,3.2,37.6,7.4,47.4,12.3
		c9.9,5.1,13,10,13.1,15.5c0,3.9-2.5,7.4-8.5,13.3c-21,21-75.9,52.2-125.4,86.4c-24.8,17.2-48.3,35.2-65.7,53.6
		c-17.4,18.4-29.2,37.2-29.4,56.6v0.9c0.1,13.5,4.1,25.4,10.8,36c-0.9-8.8,10.7-23.8,15.6-30.5
		C2529.6,681.4,2550.1,665.3,2570.9,651.5 M264.2,996.9c8.3,6.4,17.6,13.3,26.4,19c17.6,11.6,35.1,21.6,53.8,31.3
		c18.6,9.8,37.6,18.8,57.2,26.3c0,0,27.4,11.3,59.5,19.5c32.1,8.2,61.1,11.7,61.1,11.7c20.6,2.8,41.2,3.4,61.9,3.1
		c0,0,34.1-1,61.6-6.1c66.6-11,134.3-60.8,151.6-73.1L825,1009c10.1-7,20.5-13.7,31.4-19.8c21.7-12.3,45.1-22.6,70.2-29.2
		c25.1-6.6,48.6-9.1,75.1-6.2c3.3,0.3,23.4,2.3,48.4,11.8c0,0,17.5,6.7,27.2,12.9c11.4,7.3,22,15.1,31.7,23.3
		c47.3,40,185.6,206.9,225.5,242.6c47.1,42.2,106.3,85.1,154.2,97.8c92.6,24.5,165.7,2.2,248.8-50.3
		c91.8-58,166.2-144.7,229.5-231.8c66.8-91.9,126.9-192.1,166.1-299c19.4-52.9,35-110.9,24.6-167.5c-1.1-5.8-2.6-11.3-4.6-16.5
		c-13.2,28.1-27.4,55.8-42.5,83c-24.3,43.6-51,86.2-80.9,126.9c-29.9,40.7-62.7,79.7-100.3,115.4c-37.5,35.5-79.8,67.9-129.1,91.6
		c-13.5,6.3-27.4,12-41.8,16.8c-14.4,4.7-29.4,8.5-44.6,11.2c-30.5,5.3-62.6,5.8-93.7,0.6c-31.3-5-61.2-15.6-88.6-29.5
		c-27.3-14.2-52.3-31.5-74.8-50.7c0,0-13.9-12.2-16.4-14.7l-14.8-14.1c-10-9.4-19.7-18.8-29.4-28.3c-19.3-19-53.9-57.7-53.9-57.7
		s-59.9-70-109.2-123c0,0-46.1-50.1-71.3-71.4c-86.2-73.1-191.4-57-284.6-6.3c-86.3,46.9-163.2,137-266.5,143.4
		c-80.5,5-154-25.3-213.2-78.8c-78.7-71.1-154-145.1-217.2-231.5c-28-38.3-90.8-95.6-154-46.3c-63.1,49.2-4,214.1,87.9,386.8
		C114.2,800.3,196.6,944.7,264.2,996.9 M2654.9,1099.6c-0.7-21-1.6-28.6-1.6-28.6c-1.1-9-2.8-18-5.4-26.8
		c-22.5-75.9-113-109.2-178.5-62.7c-54.3,38.5-75.6,112.6-56,174.9c50,158.5,233.2,191.4,377.7,169.6
		c71.1-10.7,141.1-36.4,197.7-81.7c54.7-43.8,96.4-111.5,82.8-182.4c-9-106.3-89.6-159.2-221.1-174.5
		c6.2,12.8,26.5,105.9-39.7,166.1c-40.4,36.7-83.6,46.5-141.7,46.6C2667,1100.1,2654.9,1099.6,2654.9,1099.6 M3168.1,663
		c-13-9.4-28.3-20.9-35.2-27.6c3.7-6.4,10.3-16.2,16.2-24.6c34.2-49.6,98.5-143.5,98.5-277.5c0-77-28.1-160.5-95.9-224.6
		C3083.9,44.5,2976.8,0,2819.7,0c-149,0-316.9,49-461.9,134.7c-65,38.6-118.6,80.1-156.1,120c-37.4,39.9-59,78.1-59.1,110.9
		c0,15.9,6.1,30.6,17.7,42c9.2,9,21.4,16,36.3,21.4c15.5-100.9,398.3-320.1,678.6-288c125.3,14.4,218.6,107.7,205.7,236.9
		c-12.4,123.6-138.2,190.7-246.6,223.1c-60.5,18.1-121.2,35.6-179.2,60.7c-28.5,12.4-57.3,26.4-82.2,45
		c-18.2,13.6-41.8,31.2-40.4,56.6c42.9,29.2,110.9,46.1,155.2,49.3c35.9,2.6,46,3.2,86.3,4.4c82.8,2.5,169.7,5.3,247,38.5
		c108.4,46.5,172.2,158.6,148.9,275.9c-30,150.8-182.2,242.1-323.4,268.2c-151.1,28-340.6,6.1-440.3-124.3
		c-40.8-53.3-66.5-124.7-55.3-192.1c12.4-74.8,64.9-146.4,140.7-165.5c47.8-12.1,98.1-0.9,136.1,27.3c-9.4-13.4-20.4-25.6-32.9-36.4
		c-43.9-38.1-105.6-59.5-177.1-59.5c-88.3,0-159.2,36.7-207.8,91c-48.6,54.4-75,126.3-75,197.2c0,111.6,51.5,223.7,151.8,307.7
		c100.4,84,249.5,140,444.7,140c154.7,0,310.8-51.1,429-139.8c97.9-73.7,214.8-208.1,214.8-428.5
		C3374.9,815.2,3239.4,715.5,3168.1,663"/>
	<polygon class="st1" points="417.4,1738.4 483.6,1738.4 566.7,1996.7 652.3,1737.4 704.1,1737.4 789.7,1996.7 872.9,1738.4 
		937.1,1738.4 816.1,2089.3 762.8,2089.3 677.2,1839 591.6,2089.3 538.8,2089.3 	"/>
	<rect x="1013.2" y="1738.4" class="st1" width="61.2" height="348.5"/>
	<polygon class="st1" points="1177.5,1738.4 1234.3,1738.4 1420.9,1979.3 1420.9,1738.4 1481.1,1738.4 1481.1,2086.9 1429.9,2086.9 
		1237.7,1839 1237.7,2086.9 1177.5,2086.9 	"/>
	<path class="st1" d="M1580.7,1738.4h129.9c109.5,0,185.2,75.1,185.2,173.2v1c0,98.1-75.7,174.2-185.2,174.2h-129.9V1738.4z
		 M1641.9,1794.2v236.9h68.7c73.2,0,121-49.3,121-117.5v-1c0-68.2-47.8-118.5-121-118.5H1641.9z"/>
	<polygon class="st1" points="2035.7,1795.1 1925.2,1795.1 1925.2,1738.4 2207.9,1738.4 2207.9,1795.1 2097.4,1795.1 2097.4,2086.9 
		2035.7,2086.9 	"/>
	<path class="st1" d="M2282.6,1738.4h155.3c43.8,0,78.1,12.9,100.6,34.8c18.4,18.9,28.9,44.8,28.9,75.2v1
		c0,57.3-34.3,91.6-82.6,105.5l94.1,131.9h-72.7l-85.6-121.4h-76.7v121.4h-61.2V1738.4z M2433.4,1911.1c43.8,0,71.7-22.9,71.7-58.2
		v-1c0-37.3-26.9-57.7-72.2-57.7h-89.1v117H2433.4z"/>
	<polygon class="st1" points="2652.4,1738.4 2910.8,1738.4 2910.8,1793.2 2713.6,1793.2 2713.6,1883.7 2888.4,1883.7 2888.4,1938.5 
		2713.6,1938.5 2713.6,2032.1 2913.3,2032.1 2913.3,2086.9 2652.4,2086.9 	"/>
</g>
</svg>
